<svg width="36" height="36" viewBox="0 0 36 36" fill="none" xmlns="http://www.w3.org/2000/svg">
<g id="Message 25">
<path id="Vector" fill-rule="evenodd" clip-rule="evenodd" d="M33.5585 24.8735C37.7868 18.0314 34.3498 9.60103 30.3744 5.62563C23.5402 -1.20854 12.4598 -1.20854 5.62563 5.62563C-1.20854 12.4598 -1.20854 23.5402 5.62563 30.3744C9.77031 34.5191 18.0471 37.8026 24.8743 33.5598C25.2524 33.3248 25.4415 33.2073 25.5858 33.1499C25.8608 33.0403 26.072 33.0082 26.3671 33.0308C26.522 33.0427 26.6969 33.088 27.0467 33.1787C29.2478 33.7492 30.3485 34.0345 31.1414 33.8731C32.5176 33.5931 33.5931 32.5176 33.8731 31.1414C34.0345 30.3485 33.7492 29.248 33.1787 27.0468C33.0881 26.6971 33.0427 26.5221 33.0308 26.3678C33.008 26.0726 33.0395 25.8639 33.1485 25.5886C33.2055 25.4447 33.3232 25.2543 33.5585 24.8735ZM10.7513 9.43879C10.0265 9.43879 9.43884 10.0264 9.43884 10.7513C9.43884 11.4762 10.0265 12.0638 10.7513 12.0638H24.7513C25.4762 12.0638 26.0638 11.4762 26.0638 10.7513C26.0638 10.0264 25.4762 9.43879 24.7513 9.43879H10.7513ZM10.7513 16.4388C10.0265 16.4388 9.43884 17.0264 9.43884 17.7513C9.43884 18.4762 10.0265 19.0638 10.7513 19.0638H24.7513C25.4762 19.0638 26.0638 18.4762 26.0638 17.7513C26.0638 17.0264 25.4762 16.4388 24.7513 16.4388H10.7513ZM10.7513 23.4388C10.0265 23.4388 9.43884 24.0264 9.43884 24.7513C9.43884 25.4762 10.0265 26.0638 10.7513 26.0638H24.7513C25.4762 26.0638 26.0638 25.4762 26.0638 24.7513C26.0638 24.0264 25.4762 23.4388 24.7513 23.4388H10.7513Z" fill="#FAFAFA"/>
</g>
</svg>
