<svg width="46" height="46" viewBox="0 0 46 46" fill="none" xmlns="http://www.w3.org/2000/svg">
<circle cx="23" cy="23" r="23" fill="#5825DA"/>
<path fill-rule="evenodd" clip-rule="evenodd" d="M33 23C33 17.4772 28.5228 13 23 13C17.4772 13 13 17.4772 13 23C13 28.5228 17.4772 33 23 33C28.5228 33 33 28.5228 33 23ZM19 22.25C18.5858 22.25 18.25 22.5858 18.25 23C18.25 23.4142 18.5858 23.75 19 23.75L25.9362 23.75C25.9251 23.7642 25.9137 23.7787 25.9018 23.7935C25.6427 24.1161 25.2573 24.4997 24.6824 25.0695L23.272 26.4673C22.9778 26.7589 22.9757 27.2338 23.2673 27.528C23.5589 27.8222 24.0338 27.8243 24.328 27.5327L25.7691 26.1043C26.3053 25.573 26.7525 25.1298 27.0713 24.7328C27.4057 24.3163 27.6601 23.8787 27.7281 23.3455C27.7427 23.2308 27.75 23.1154 27.75 23C27.75 22.8846 27.7427 22.7692 27.7281 22.6545C27.6601 22.1213 27.4057 21.6837 27.0713 21.2672C26.7525 20.8702 26.3053 20.427 25.7691 19.8957L24.328 18.4673C24.0338 18.1757 23.5589 18.1778 23.2673 18.472C22.9757 18.7662 22.9778 19.2411 23.272 19.5327L24.6824 20.9305C25.2573 21.5003 25.6427 21.8839 25.9018 22.2065C25.9137 22.2213 25.9251 22.2358 25.9362 22.25L19 22.25Z" fill="#FAFAFA"/>
</svg>
